HIERARCHY
ROOT Hips
{
  OFFSET -35.2597 29.1586 114.425
  CHANNELS 6 Xposition Yposition Zposition Zrotation Xrotation Yrotation
  JOINT LeftUpLeg
  {
    OFFSET 8.64259 1.95398 -2.38835
    CHANNELS 3 Zrotation Xrotation Yrotation
    JOINT LeftLeg
    {
      OFFSET 43.7702 0 0
      CHANNELS 3 Zrotation Xrotation Yrotation
      JOINT LeftFoot
      {
        OFFSET 40.6238 0 0
        CHANNELS 3 Zrotation Xrotation Yrotation
        JOINT LeftToeBase
        {
          OFFSET 12.7242 0 0
          CHANNELS 3 Zrotation Xrotation Yrotation
          End Site
          {
            OFFSET 0 0 0
          }
        }
      }
    }
  }
  JOINT RightUpLeg
  {
    OFFSET -8.2249 1.95398 -2.59336
    CHANNELS 3 Zrotation Xrotation Yrotation
    JOINT RightLeg
    {
      OFFSET 43.5653 0 0
      CHANNELS 3 Zrotation Xrotation Yrotation
      JOINT RightFoot
      {
        OFFSET 40.6238 0 0
        CHANNELS 3 Zrotation Xrotation Yrotation
        JOINT RightToeBase
        {
          OFFSET 12.7242 0 0
          CHANNELS 3 Zrotation Xrotation Yrotation
          End Site
          {
            OFFSET 0 0 0
          }
        }
      }
    }
  }
  JOINT Spine
  {
    OFFSET 0.165834 0.87714 6.61349
    CHANNELS 3 Zrotation Xrotation Yrotation
    JOINT Spine1
    {
      OFFSET 7.38963 1.71661e-005 0
      CHANNELS 3 Zrotation Xrotation Yrotation
      JOINT Spine2
      {
        OFFSET 11.9445 1.14441e-005 0
        CHANNELS 3 Zrotation Xrotation Yrotation
        JOINT Spine3
        {
          OFFSET 14.7254 4.19617e-005 0
          CHANNELS 3 Zrotation Xrotation Yrotation
          JOINT Spine4
          {
            OFFSET 10.9679 0 0
            CHANNELS 3 Zrotation Xrotation Yrotation
            JOINT RightShoulder
            {
              OFFSET 2.46616 -1.6653 3.69651
              CHANNELS 3 Zrotation Xrotation Yrotation
              JOINT RightArm
              {
                OFFSET 13.0012 0 0
                CHANNELS 3 Zrotation Xrotation Yrotation
                JOINT RightForeArm
                {
                  OFFSET 28.7848 1.62311e-005 0
                  CHANNELS 3 Zrotation Xrotation Yrotation
                  JOINT RightHand
                  {
                    OFFSET 26.5688 1.62095e-005 0
                    CHANNELS 3 Zrotation Xrotation Yrotation
                    End Site
                    {
                      OFFSET 0 0 0
                    }
                  }
                }
              }
            }
            JOINT LeftShoulder
            {
              OFFSET 2.38034 -1.29275 -3.7523
              CHANNELS 3 Zrotation Xrotation Yrotation
              JOINT LeftArm
              {
                OFFSET 16.3182 6.07031e-005 0
                CHANNELS 3 Zrotation Xrotation Yrotation
                JOINT LeftForeArm
                {
                  OFFSET 27.0901 0 0
                  CHANNELS 3 Zrotation Xrotation Yrotation
                  JOINT LeftHand
                  {
                    OFFSET 24.5451 1.51738e-005 0
                    CHANNELS 3 Zrotation Xrotation Yrotation
                    End Site
                    {
                      OFFSET 0 0 0
                    }
                  }
                }
              }
            }
            JOINT Neck
            {
              OFFSET 5.0226 -0.0266342 0
              CHANNELS 3 Zrotation Xrotation Yrotation
              JOINT Head
              {
                OFFSET 6.69364 2.86102e-005 0
                CHANNELS 3 Zrotation Xrotation Yrotation
                End Site
                {
                  OFFSET 0 0 0
                }
              }
            }
          }
        }
      }
    }
  }
}
MOTION
Frames:	9
Frame Time:	0.0416667
41.3235 102.016 -257.614 -161.171 -84.775 -162.294 -175.596 -4.08357 87.6232 -8.69384 4.86515 0.323681 68.2588 5.35028 -1.57144 20.1974 -10.0575 9.08666 174.244 -2.88743 90.5828 -10.2264 -5.61691 0.259218 66.2992 -3.52472 0.0993665 24.6908 1.60045 0.458755 0.192105 7.53189 -90.0802 11.8104 0.344403 -0.196398 0.139494 0.335422 -0.21138 -22.396 0.387494 -0.0838149 -2.38336 0.387507 -0.0838121 87.8275 -35.9575 -108.608 43.3884 7.32092 -5.49923 -6.0086 -50.9188 -5.91692 -23.4178 2.98129 -19.9325 -86.7357 -58.6535 84.8997 -25.5953 -12.3935 -16.8668 3.68441 42.2571 -4.76646 4.34219 -0.81209 -16.6234 5.51317 -2.4849 -1.23409 -6.42027 -2.19654 -0.379183 
41.2293 102.021 -257.594 -161.49 -84.9329 -162.541 -175.675 -3.10274 87.7381 -10.3476 3.59906 0.596479 69.6769 5.64021 -2.45783 16.1431 -10.0233 5.09421 174.495 -2.76446 90.8003 -10.2114 -5.33054 0.152336 65.802 -3.45374 0.760297 25.2867 1.37201 0.37806 0.194651 7.52346 -90.0563 11.8272 0.36065 -0.150686 0.156307 0.353666 -0.166424 -22.3792 0.389262 -0.0353266 -2.36658 0.389263 -0.0353276 87.1521 -36.9783 -109.431 42.4493 7.71903 -5.50176 -6.08393 -51.7137 -5.9714 -22.9851 2.81919 -19.4179 -86.4873 -58.3553 85.2001 -25.4515 -12.4676 -16.8451 3.70251 42.3803 -4.77674 3.19402 -0.740819 -16.4382 4.92466 -2.37447 -1.77982 -5.39582 -1.99298 -0.511908 
41.1096 102.014 -257.479 -158.487 -84.974 -159.373 -175.692 -2.96386 87.9003 -10.4778 3.11234 0.750129 70.0318 5.75523 -2.68591 15.1772 -10.0104 4.20301 174.779 -2.62497 91.1465 -10.4172 -4.97045 0.0235322 66.1804 -3.74301 0.53729 25.3266 1.41943 0.185054 0.242126 7.51726 -90.0833 11.8398 0.442395 -0.213141 0.168934 0.432578 -0.232408 -22.3668 0.485995 -0.0703215 -2.35416 0.485991 -0.0703322 87.1383 -36.645 -109.583 42.6955 7.61436 -5.50307 -6.00309 -50.8633 -5.91289 -22.4031 2.6795 -19.0881 -86.4913 -57.9771 85.1441 -25.5619 -12.4162 -16.7953 3.6774 41.9944 -4.75357 -1.72432 -0.0997035 -10.3514 5.01327 -2.40737 -1.67998 -5.56508 -2.03911 -0.564386 
40.992 101.991 -257.235 -158.776 -85.2394 -159.927 -175.816 -3.14747 87.6918 -9.92089 3.20225 0.75345 69.9536 5.86311 -2.59676 15.2702 -9.97203 4.23289 174.771 -2.39444 91.0392 -10.7901 -4.89038 -0.0682435 66.522 -3.91373 0.440885 25.1354 1.4708 0.277283 0.234616 7.47743 -90.0874 11.9195 0.425394 -0.220151 0.248557 0.415288 -0.23867 -22.2871 0.471885 -0.0821221 -2.27448 0.471887 -0.0821301 87.5348 -36.3917 -108.971 42.8657 7.53842 -5.51848 -6.03139 -51.1644 -5.93324 -22.308 2.74077 -19.465 -86.6278 -58.5724 85.0367 -25.154 -12.6505 -16.3797 3.66515 41.7114 -4.74284 -1.27002 -0.154096 -10.9684 5.06884 -2.33953 -0.753738 -5.85261 -2.1069 -1.38797 
40.7514 101.965 -256.913 -161.516 -85.3572 -162.664 -175.636 -3.31551 87.9253 -9.9249 3.64401 0.675251 69.9484 5.90029 -2.43913 15.3133 -9.51761 3.61348 174.793 -2.56067 91.1827 -10.8756 -4.59355 -0.00427586 66.7896 -4.06693 0.586681 25.2096 1.5994 -0.199958 0.209274 7.50673 -90.0421 11.8607 0.396383 -0.126331 0.189821 0.390438 -0.143658 -22.3458 0.416023 -0.00135788 -2.33318 0.416019 -0.00135998 86.9057 -36.8623 -109.913 42.6397 7.61029 -5.61932 -5.99525 -50.7773 -5.9073 -23.1281 2.7985 -19.2222 -86.5388 -57.7209 85.0438 -25.567 -12.4445 -16.3852 3.60469 40.797 -4.67884 -0.972876 -0.170148 -10.8814 4.90089 -2.39671 -2.03728 -5.24432 -1.97824 -0.264969 
40.3508 101.925 -256.538 -162.072 -85.5064 -163.344 -175.622 -3.39455 88.0684 -10.0143 3.47506 0.766413 70.2781 6.09753 -3.11487 15.483 -9.52973 3.78144 174.744 -2.70007 91.2763 -10.892 -4.55089 0.112878 67.0686 -4.25344 0.31891 25.324 1.50365 -0.0635184 0.239426 7.49424 -90.0718 11.8858 0.442348 -0.190557 0.214954 0.433531 -0.209845 -22.3208 0.47916 -0.0487981 -2.30814 0.479161 -0.0488039 87.8648 -36.269 -108.425 43.0261 7.37989 -5.89134 -5.99963 -50.8255 -5.9104 -21.5202 2.72305 -19.9175 -86.5506 -58.8059 85.1732 -24.4043 -13.0273 -16.3227 3.69438 42.2641 -4.77012 -1.66801 -0.13877 -12.075 5.00491 -2.46383 -0.893879 -5.6031 -2.22461 -0.932963 
39.7708 101.849 -256.028 -160.513 -85.5759 -161.925 -175.013 -3.70033 88.6339 -9.87452 4.03767 0.24156 70.4351 6.62443 -2.87421 16.5527 -9.67986 4.98298 174.885 -2.63127 91.5133 -11.6238 -4.15388 0.0386842 67.7822 -4.51185 0.552012 24.7862 1.63423 0.239371 0.255032 7.51275 -90.0541 11.8487 0.481748 -0.159516 0.177853 0.474264 -0.180566 -22.358 0.50741 -0.00735118 -2.34535 0.507418 -0.00734778 87.5484 -36.0736 -109.067 43.1932 7.33331 -5.78933 -5.95484 -50.3401 -5.87851 -22.5972 2.60739 -18.6101 -86.4001 -59.3424 85.4493 -23.6822 -13.3921 -16.1754 3.55832 39.9338 -4.63223 -1.84936 -0.125743 -12.9196 4.84556 -2.16833 0.169407 -5.6029 -2.09434 -1.77133 
38.9747 101.698 -255.2 -165.027 -85.3465 -166.798 -174.46 -4.26381 89.0995 -10.4951 4.75829 -0.133106 71.0502 7.48638 -2.90662 17.0084 -9.57051 5.22657 174.833 -3.2969 91.6373 -12.1301 -3.80366 0.050394 68.6777 -4.89212 0.41799 25.0721 1.54319 0.143513 0.251552 7.57114 -89.9628 11.7317 0.517821 0.0198387 0.060916 0.518182 -0.00297465 -22.475 0.487911 0.174545 -2.46238 0.487913 0.174549 87.5299 -36.164 -109.065 42.8691 7.47155 -5.79055 -6.06254 -51.4914 -5.95572 -22.3922 2.78958 -19.6655 -86.4033 -59.4308 85.4562 -22.6984 -13.9147 -15.3451 3.39163 36.8458 -4.46166 -1.05048 -0.199812 -13.7867 4.08789 -2.01195 0.718091 -4.98169 -2.02911 -2.29276 
38.0483 101.342 -254.501 -162.585 -84.9397 -165.021 -174.089 -4.27008 89.2584 -12.285 3.99584 -0.415596 72.3335 8.91833 -3.8492 20.2209 -9.8554 8.799 173.755 -2.68832 90.8899 -15.136 -5.40129 0.792624 70.5171 -5.68045 -0.363224 24.9648 1.49929 0.410172 0.324969 7.67612 -89.8882 11.5213 0.698826 0.151047 -0.149475 0.704807 0.120141 -22.6858 0.621134 0.354107 -2.67317 0.621116 0.354091 87.1872 -35.4819 -109.948 42.941 7.43029 -5.83358 -6.13573 -52.2433 -6.00931 -23.462 2.54082 -17.7533 -86.248 -60.4838 85.8 -21.2052 -14.6481 -14.8483 3.37305 36.1539 -4.45015 -1.16641 -0.196305 -14.3956 3.55448 -1.71372 2.15116 -4.70769 -1.96359 -2.866 
